<mxfile host="app.diagrams.net" modified="2023-07-02T01:03:47.891Z" agent="Mozilla/5.0 (X11; Linux x86_64) AppleWebKit/537.36 (KHTML, like Gecko) Chrome/114.0.0.0 Safari/537.36" etag="P0XWmCsCg_oGilPc3g8_" version="21.5.2" type="github">
  <diagram name="ページ1" id="7XL-9YuLPGaVbZlobrVh">
    <mxGraphModel dx="1235" dy="705" grid="1" gridSize="10" guides="1" tooltips="1" connect="1" arrows="1" fold="1" page="1" pageScale="1" pageWidth="1169" pageHeight="827" background="#FFFFFF" math="0" shadow="0">
      <root>
        <mxCell id="0" />
        <mxCell id="1" parent="0" />
        <mxCell id="3xfuR8vdGIX8gqFwZv_V-6" value="" style="rounded=0;whiteSpace=wrap;html=1;fillColor=#d0cee2;strokeColor=#56517e;strokeWidth=2;" vertex="1" parent="1">
          <mxGeometry x="640" y="60" width="350" height="640" as="geometry" />
        </mxCell>
        <mxCell id="3xfuR8vdGIX8gqFwZv_V-5" value="" style="rounded=0;whiteSpace=wrap;html=1;fillColor=#bac8d3;strokeColor=#808080;strokeWidth=2;" vertex="1" parent="1">
          <mxGeometry x="280" y="60" width="350" height="640" as="geometry" />
        </mxCell>
        <mxCell id="3xfuR8vdGIX8gqFwZv_V-28" value="" style="rounded=0;whiteSpace=wrap;html=1;fillColor=#EBF4FF;strokeColor=none;strokeWidth=2;glass=0;shadow=0;" vertex="1" parent="1">
          <mxGeometry x="460" y="70" width="160" height="570" as="geometry" />
        </mxCell>
        <mxCell id="3xfuR8vdGIX8gqFwZv_V-20" value="" style="rounded=0;whiteSpace=wrap;html=1;fillColor=#EBF4FF;strokeColor=none;strokeWidth=2;glass=0;shadow=0;" vertex="1" parent="1">
          <mxGeometry x="290" y="70" width="160" height="570" as="geometry" />
        </mxCell>
        <mxCell id="3xfuR8vdGIX8gqFwZv_V-24" value="" style="rounded=0;whiteSpace=wrap;html=1;fillColor=#F6EDFF;strokeColor=none;strokeWidth=2;glass=0;shadow=0;" vertex="1" parent="1">
          <mxGeometry x="650" y="70" width="160" height="570" as="geometry" />
        </mxCell>
        <mxCell id="3xfuR8vdGIX8gqFwZv_V-31" value="" style="rounded=0;whiteSpace=wrap;html=1;fillColor=#F6EDFF;strokeColor=none;strokeWidth=2;glass=0;shadow=0;" vertex="1" parent="1">
          <mxGeometry x="820" y="70" width="160" height="570" as="geometry" />
        </mxCell>
        <mxCell id="KWRDC6EYD1TzCv_FL34X-2" value="HAL" style="rounded=1;whiteSpace=wrap;html=1;fillColor=#f5f5f5;strokeColor=#666666;fontColor=#666666;fontSize=16;labelBackgroundColor=none;labelBorderColor=none;" parent="1" vertex="1">
          <mxGeometry x="300" y="520" width="310" height="60" as="geometry" />
        </mxCell>
        <mxCell id="KWRDC6EYD1TzCv_FL34X-3" value="Linux" style="rounded=1;whiteSpace=wrap;html=1;fillColor=#f5f5f5;strokeColor=#666666;fontColor=#666666;fontSize=16;labelBackgroundColor=none;labelBorderColor=none;" parent="1" vertex="1">
          <mxGeometry x="660" y="520" width="310" height="60" as="geometry" />
        </mxCell>
        <mxCell id="KWRDC6EYD1TzCv_FL34X-4" value="mbed" style="rounded=1;whiteSpace=wrap;html=1;fillColor=#f5f5f5;strokeColor=#666666;fontColor=#666666;fontSize=16;labelBackgroundColor=none;labelBorderColor=none;" parent="1" vertex="1">
          <mxGeometry x="300" y="450" width="140" height="60" as="geometry" />
        </mxCell>
        <mxCell id="KWRDC6EYD1TzCv_FL34X-5" value="ROS" style="rounded=1;whiteSpace=wrap;html=1;fillColor=#f5f5f5;strokeColor=#666666;fontColor=#666666;fontSize=16;labelBackgroundColor=none;labelBorderColor=none;" parent="1" vertex="1">
          <mxGeometry x="660" y="450" width="140" height="60" as="geometry" />
        </mxCell>
        <mxCell id="KWRDC6EYD1TzCv_FL34X-6" value="ROS2" style="rounded=1;whiteSpace=wrap;html=1;fillColor=#f5f5f5;strokeColor=#666666;fontColor=#666666;fontSize=16;labelBackgroundColor=none;labelBorderColor=none;" parent="1" vertex="1">
          <mxGeometry x="830" y="450" width="140" height="60" as="geometry" />
        </mxCell>
        <mxCell id="KWRDC6EYD1TzCv_FL34X-7" value="roblab::common" style="rounded=1;whiteSpace=wrap;html=1;fillColor=#f5f5f5;strokeColor=#666666;fontColor=#666666;fontSize=16;labelBackgroundColor=none;labelBorderColor=none;" parent="1" vertex="1">
          <mxGeometry x="300" y="299" width="670" height="60" as="geometry" />
        </mxCell>
        <mxCell id="KWRDC6EYD1TzCv_FL34X-8" value="roblab::stm32" style="rounded=1;whiteSpace=wrap;html=1;fillColor=#f5f5f5;strokeColor=#666666;fontColor=#666666;fontSize=16;labelBackgroundColor=none;labelBorderColor=none;" parent="1" vertex="1">
          <mxGeometry x="470" y="160" width="140" height="60" as="geometry" />
        </mxCell>
        <mxCell id="KWRDC6EYD1TzCv_FL34X-9" value="roblab::mbed" style="rounded=1;whiteSpace=wrap;html=1;fillColor=#f5f5f5;strokeColor=#666666;fontColor=#666666;fontSize=16;labelBackgroundColor=none;labelBorderColor=none;" parent="1" vertex="1">
          <mxGeometry x="300" y="160" width="140" height="60" as="geometry" />
        </mxCell>
        <mxCell id="KWRDC6EYD1TzCv_FL34X-10" value="roblab::ros2" style="rounded=1;whiteSpace=wrap;html=1;fillColor=#f5f5f5;strokeColor=#666666;fontColor=#666666;fontSize=16;labelBackgroundColor=none;labelBorderColor=none;" parent="1" vertex="1">
          <mxGeometry x="830" y="160" width="140" height="60" as="geometry" />
        </mxCell>
        <mxCell id="KWRDC6EYD1TzCv_FL34X-11" value="roblab::ros" style="rounded=1;whiteSpace=wrap;html=1;fillColor=#f5f5f5;strokeColor=#666666;fontColor=#666666;fontSize=16;labelBackgroundColor=none;labelBorderColor=none;" parent="1" vertex="1">
          <mxGeometry x="660" y="160" width="140" height="60" as="geometry" />
        </mxCell>
        <mxCell id="KWRDC6EYD1TzCv_FL34X-13" value="&lt;font style=&quot;font-size: 26px;&quot;&gt;マイコン&lt;/font&gt;" style="text;html=1;align=center;verticalAlign=middle;resizable=0;points=[];autosize=1;strokeColor=none;fillColor=none;rounded=1;fontColor=#707070;labelBackgroundColor=none;fontSize=26;" parent="1" vertex="1">
          <mxGeometry x="390" y="653" width="130" height="40" as="geometry" />
        </mxCell>
        <mxCell id="KWRDC6EYD1TzCv_FL34X-14" value="&lt;font color=&quot;#56517e&quot; style=&quot;font-size: 26px;&quot;&gt;PC (Ubuntu)&lt;/font&gt;" style="text;html=1;align=center;verticalAlign=middle;resizable=0;points=[];autosize=1;strokeColor=none;fillColor=none;rounded=1;fontColor=#707070;" parent="1" vertex="1">
          <mxGeometry x="730" y="653" width="170" height="40" as="geometry" />
        </mxCell>
        <mxCell id="KWRDC6EYD1TzCv_FL34X-16" value="roblab::linux" style="rounded=1;whiteSpace=wrap;html=1;fillColor=#f5f5f5;strokeColor=#666666;fontColor=#666666;fontSize=16;labelBackgroundColor=none;labelBorderColor=none;" parent="1" vertex="1">
          <mxGeometry x="660" y="230" width="310" height="60" as="geometry" />
        </mxCell>
        <mxCell id="3xfuR8vdGIX8gqFwZv_V-1" value="" style="endArrow=none;html=1;rounded=1;strokeColor=#808080;strokeWidth=2;shadow=0;fillColor=#eeeeee;dashed=1;fontColor=#808080;" edge="1" parent="1">
          <mxGeometry width="50" height="50" relative="1" as="geometry">
            <mxPoint x="985" y="150" as="sourcePoint" />
            <mxPoint x="60" y="150" as="targetPoint" />
          </mxGeometry>
        </mxCell>
        <mxCell id="3xfuR8vdGIX8gqFwZv_V-2" value="&lt;div style=&quot;font-size: 22px;&quot;&gt;公式ライブラリ&lt;span style=&quot;font-size: 22px;&quot;&gt;&lt;br&gt;&lt;/span&gt;&lt;/div&gt;&lt;div style=&quot;font-size: 22px;&quot;&gt;&lt;span style=&quot;font-size: 22px;&quot;&gt;プラットフォーム&amp;nbsp;&lt;/span&gt;&lt;/div&gt;" style="text;html=1;align=center;verticalAlign=middle;resizable=0;points=[];autosize=1;strokeColor=#808080;fillColor=none;rounded=0;fontColor=#808080;fontSize=22;glass=0;shadow=0;fillStyle=auto;labelBackgroundColor=none;horizontal=1;rotation=0;spacing=0;spacingTop=3;labelBorderColor=none;strokeWidth=1.5;" vertex="1" parent="1">
          <mxGeometry x="70" y="450" width="200" height="60" as="geometry" />
        </mxCell>
        <mxCell id="3xfuR8vdGIX8gqFwZv_V-3" value="自作ライブラリ" style="text;html=1;align=center;verticalAlign=middle;resizable=0;points=[];autosize=1;strokeColor=#808080;fillColor=none;rounded=0;fontColor=#808080;fontSize=23;horizontal=1;rotation=0;strokeWidth=1.5;" vertex="1" parent="1">
          <mxGeometry x="80" y="240" width="180" height="40" as="geometry" />
        </mxCell>
        <mxCell id="3xfuR8vdGIX8gqFwZv_V-9" value="" style="endArrow=none;html=1;rounded=1;strokeColor=#808080;strokeWidth=2;shadow=0;fillColor=#eeeeee;dashed=1;fontColor=#808080;exitX=1.005;exitY=0.477;exitDx=0;exitDy=0;exitPerimeter=0;" edge="1" parent="1">
          <mxGeometry width="50" height="50" relative="1" as="geometry">
            <mxPoint x="984.7999999999997" y="369.03999999999996" as="sourcePoint" />
            <mxPoint x="60" y="370" as="targetPoint" />
          </mxGeometry>
        </mxCell>
        <mxCell id="3xfuR8vdGIX8gqFwZv_V-14" value="汎用C++ライブラリ" style="rounded=1;whiteSpace=wrap;html=1;fillColor=#f5f5f5;strokeColor=#666666;fontColor=#666666;fontSize=16;labelBackgroundColor=none;labelBorderColor=none;" vertex="1" parent="1">
          <mxGeometry x="300" y="380" width="670" height="60" as="geometry" />
        </mxCell>
        <mxCell id="3xfuR8vdGIX8gqFwZv_V-22" value="Mbedソフト" style="rounded=0;whiteSpace=wrap;html=1;fillColor=#f5f5f5;strokeColor=#666666;fontColor=#666666;fontSize=16;labelBackgroundColor=none;labelBorderColor=none;" vertex="1" parent="1">
          <mxGeometry x="300" y="80" width="140" height="60" as="geometry" />
        </mxCell>
        <mxCell id="3xfuR8vdGIX8gqFwZv_V-32" value="&lt;font style=&quot;font-size: 21px;&quot;&gt;&amp;nbsp;Mbed&amp;nbsp;&lt;/font&gt;" style="text;html=1;align=center;verticalAlign=middle;resizable=0;points=[];autosize=1;strokeColor=none;fillColor=none;rounded=1;fontColor=#FFFFFF;labelBackgroundColor=#BAC8D3;fontSize=21;" vertex="1" parent="1">
          <mxGeometry x="325" y="590" width="90" height="40" as="geometry" />
        </mxCell>
        <mxCell id="3xfuR8vdGIX8gqFwZv_V-33" value="&amp;nbsp;STM32Cube&amp;nbsp;" style="text;html=1;align=center;verticalAlign=middle;resizable=0;points=[];autosize=1;strokeColor=none;fillColor=none;rounded=1;fontColor=#FFFFFF;labelBackgroundColor=#BAC8D3;fontSize=21;" vertex="1" parent="1">
          <mxGeometry x="465" y="590" width="150" height="40" as="geometry" />
        </mxCell>
        <mxCell id="3xfuR8vdGIX8gqFwZv_V-35" value="&amp;nbsp;ROS&amp;nbsp;" style="text;html=1;align=center;verticalAlign=middle;resizable=0;points=[];autosize=1;strokeColor=none;fillColor=none;rounded=1;fontColor=#FFFFFF;labelBackgroundColor=#D0CEE2;fontSize=21;" vertex="1" parent="1">
          <mxGeometry x="690" y="590" width="80" height="40" as="geometry" />
        </mxCell>
        <mxCell id="3xfuR8vdGIX8gqFwZv_V-37" value="&amp;nbsp;ROS2&amp;nbsp;" style="text;html=1;align=center;verticalAlign=middle;resizable=0;points=[];autosize=1;strokeColor=none;fillColor=none;rounded=1;fontColor=#FFFFFF;labelBackgroundColor=#D0CEE2;fontSize=21;" vertex="1" parent="1">
          <mxGeometry x="855" y="590" width="90" height="40" as="geometry" />
        </mxCell>
        <mxCell id="3xfuR8vdGIX8gqFwZv_V-38" value="STM32Cube&lt;br&gt;ソフト" style="rounded=0;whiteSpace=wrap;html=1;fillColor=#f5f5f5;strokeColor=#666666;fontColor=#666666;fontSize=16;labelBackgroundColor=none;labelBorderColor=none;" vertex="1" parent="1">
          <mxGeometry x="470" y="80" width="140" height="60" as="geometry" />
        </mxCell>
        <mxCell id="3xfuR8vdGIX8gqFwZv_V-39" value="ROSソフト" style="rounded=0;whiteSpace=wrap;html=1;fillColor=#f5f5f5;strokeColor=#666666;fontColor=#666666;fontSize=16;labelBackgroundColor=none;labelBorderColor=none;" vertex="1" parent="1">
          <mxGeometry x="660" y="80" width="140" height="60" as="geometry" />
        </mxCell>
        <mxCell id="3xfuR8vdGIX8gqFwZv_V-40" value="ROS2ソフト" style="rounded=0;whiteSpace=wrap;html=1;fillColor=#f5f5f5;strokeColor=#666666;fontColor=#666666;fontSize=16;labelBackgroundColor=none;labelBorderColor=none;" vertex="1" parent="1">
          <mxGeometry x="830" y="80" width="140" height="60" as="geometry" />
        </mxCell>
        <mxCell id="3xfuR8vdGIX8gqFwZv_V-43" value="実際の開発" style="text;html=1;align=center;verticalAlign=middle;resizable=0;points=[];autosize=1;strokeColor=#808080;fillColor=none;rounded=0;fontColor=#808080;fontSize=23;horizontal=1;rotation=0;strokeWidth=1.5;" vertex="1" parent="1">
          <mxGeometry x="100" y="90" width="140" height="40" as="geometry" />
        </mxCell>
      </root>
    </mxGraphModel>
  </diagram>
</mxfile>
